HIERARCHY
ROOT hip
{
  OFFSET 8.46145 83.2713 44.5361
  CHANNELS 6 Xposition Yposition Zposition Zrotation Xrotation Yrotation
  JOINT abdomen
  {
    OFFSET 0 20.6881 -0.73152
    CHANNELS 3 Zrotation Xrotation Yrotation
    JOINT chest
    {
      OFFSET 0 11.7043 -0.48768
      CHANNELS 3 Zrotation Xrotation Yrotation
      JOINT neck
      {
        OFFSET 0 22.1894 -2.19456
        CHANNELS 3 Zrotation Xrotation Yrotation
        JOINT head
        {
          OFFSET -0.24384 7.07133 1.2192
          CHANNELS 3 Zrotation Xrotation Yrotation
          JOINT leftEye
          {
            OFFSET 4.14528 8.04674 8.04672
            CHANNELS 3 Zrotation Xrotation Yrotation
            End Site
            {
              OFFSET 1 0 0
            }
          }
          JOINT rightEye
          {
            OFFSET -3.6576 8.04674 8.04672
            CHANNELS 3 Zrotation Xrotation Yrotation
            End Site
            {
              OFFSET 1 0 0
            }
          }
        }
      }
      JOINT rCollar
      {
        OFFSET -2.68224 19.2634 -4.8768
        CHANNELS 3 Zrotation Xrotation Yrotation
        JOINT rShldr
        {
          OFFSET -8.77824 -1.95073 1.46304
          CHANNELS 3 Zrotation Xrotation Yrotation
          JOINT rForeArm
          {
            OFFSET -28.1742 -1.7115 0.48768
            CHANNELS 3 Zrotation Xrotation Yrotation
            JOINT rHand
            {
              OFFSET -22.5879 0.773209 7.07136
              CHANNELS 3 Zrotation Xrotation Yrotation
              JOINT rThumb1
              {
                OFFSET -1.2192 -0.487915 3.41376
                CHANNELS 3 Zrotation Xrotation Yrotation
                JOINT rThumb2
                {
                  OFFSET -3.37035 -0.52449 3.41376
                  CHANNELS 3 Zrotation Xrotation Yrotation
                  End Site
                  {
                    OFFSET -1.78271 -1.18214 1.43049
                  }
                }
              }
              JOINT rIndex1
              {
                OFFSET -7.75947 0.938293 5.60832
                CHANNELS 3 Zrotation Xrotation Yrotation
                JOINT rIndex2
                {
                  OFFSET -2.54057 -0.884171 1.56538
                  CHANNELS 3 Zrotation Xrotation Yrotation
                  End Site
                  {
                    OFFSET -1.62519 -0.234802 1.16502
                  }
                }
              }
              JOINT rMid1
              {
                OFFSET -8.24714 1.18213 3.41376
                CHANNELS 3 Zrotation Xrotation Yrotation
                JOINT rMid2
                {
                  OFFSET -3.10165 -0.590103 1.0647
                  CHANNELS 3 Zrotation Xrotation Yrotation
                  End Site
                  {
                    OFFSET -2.48547 -0.328903 0.83742
                  }
                }
              }
              JOINT rRing1
              {
                OFFSET -8.82822 0.546677 1.51678
                CHANNELS 3 Zrotation Xrotation Yrotation
                JOINT rRing2
                {
                  OFFSET -2.60934 -0.819778 -0.0198488
                  CHANNELS 3 Zrotation Xrotation Yrotation
                  End Site
                  {
                    OFFSET -2.33842 -0.294052 0.168128
                  }
                }
              }
              JOINT rPinky1
              {
                OFFSET -8.27202 -0.0477905 -0.4584
                CHANNELS 3 Zrotation Xrotation Yrotation
                JOINT rPinky2
                {
                  OFFSET -1.82734 -0.647385 -0.700984
                  CHANNELS 3 Zrotation Xrotation Yrotation
                  End Site
                  {
                    OFFSET -1.69225 -0.51767 -0.607171
                  }
                }
              }
            }
          }
        }
      }
      JOINT lCollar
      {
        OFFSET 2.68224 19.2634 -4.8768
        CHANNELS 3 Zrotation Xrotation Yrotation
        JOINT lShldr
        {
          OFFSET 8.77824 -1.95073 1.46304
          CHANNELS 3 Zrotation Xrotation Yrotation
          JOINT lForeArm
          {
            OFFSET 28.1742 -1.7115 0.48768
            CHANNELS 3 Zrotation Xrotation Yrotation
            JOINT lHand
            {
              OFFSET 22.5879 0.773209 7.07136
              CHANNELS 3 Zrotation Xrotation Yrotation
              JOINT lThumb1
              {
                OFFSET 1.2192 -0.487915 3.41376
                CHANNELS 3 Zrotation Xrotation Yrotation
                JOINT lThumb2
                {
                  OFFSET 3.37035 -0.52449 3.41376
                  CHANNELS 3 Zrotation Xrotation Yrotation
                  End Site
                  {
                    OFFSET 1.78271 -1.18214 1.43049
                  }
                }
              }
              JOINT lIndex1
              {
                OFFSET 7.75947 0.938293 5.60832
                CHANNELS 3 Zrotation Xrotation Yrotation
                JOINT lIndex2
                {
                  OFFSET 2.54057 -0.884171 1.56538
                  CHANNELS 3 Zrotation Xrotation Yrotation
                  End Site
                  {
                    OFFSET 1.62519 -0.234802 1.16502
                  }
                }
              }
              JOINT lMid1
              {
                OFFSET 8.24714 1.18213 3.41376
                CHANNELS 3 Zrotation Xrotation Yrotation
                JOINT lMid2
                {
                  OFFSET 3.10165 -0.590103 1.0647
                  CHANNELS 3 Zrotation Xrotation Yrotation
                  End Site
                  {
                    OFFSET 2.48547 -0.328903 0.83742
                  }
                }
              }
              JOINT lRing1
              {
                OFFSET 8.82822 0.546677 1.51678
                CHANNELS 3 Zrotation Xrotation Yrotation
                JOINT lRing2
                {
                  OFFSET 2.60934 -0.819778 -0.0198488
                  CHANNELS 3 Zrotation Xrotation Yrotation
                  End Site
                  {
                    OFFSET 2.33842 -0.294052 0.168128
                  }
                }
              }
              JOINT lPinky1
              {
                OFFSET 8.27202 -0.0477905 -0.4584
                CHANNELS 3 Zrotation Xrotation Yrotation
                JOINT lPinky2
                {
                  OFFSET 1.82734 -0.647385 -0.700984
                  CHANNELS 3 Zrotation Xrotation Yrotation
                  End Site
                  {
                    OFFSET 1.69225 -0.51767 -0.607171
                  }
                }
              }
            }
          }
        }
      }
    }
  }
  JOINT rButtock
  {
    OFFSET -8.77824 4.35084 1.2192
    CHANNELS 3 Zrotation Xrotation Yrotation
    JOINT rThigh
    {
      OFFSET 0 -1.70687 -2.19456
      CHANNELS 3 Zrotation Xrotation Yrotation
      JOINT rShin
      {
        OFFSET 0 -36.8199 0.73152
        CHANNELS 3 Zrotation Xrotation Yrotation
        JOINT rFoot
        {
          OFFSET 0.73152 -45.1104 -5.12064
          CHANNELS 3 Zrotation Xrotation Yrotation
          End Site
          {
            OFFSET -1.1221 -3.69964 12.103
          }
        }
      }
    }
  }
  JOINT lButtock
  {
    OFFSET 8.77824 4.35084 1.2192
    CHANNELS 3 Zrotation Xrotation Yrotation
    JOINT lThigh
    {
      OFFSET 0 -1.70687 -2.19456
      CHANNELS 3 Zrotation Xrotation Yrotation
      JOINT lShin
      {
        OFFSET 0 -36.8199 0.73152
        CHANNELS 3 Zrotation Xrotation Yrotation
        JOINT lFoot
        {
          OFFSET -0.73152 -45.1104 -5.12064
          CHANNELS 3 Zrotation Xrotation Yrotation
          End Site
          {
            OFFSET 1.1221 -3.69964 12.103
          }
        }
      }
    }
  }
}
MOTION
Frames:	4
Frame Time:	0.00833333
-8.18222 143.438 -46.6042 0.401531 -3.33262 -144.943 -3.20497 10.8778 6.73621 -1.05243 -3.78363 1.73262 -5.39869 6.48175 2.79065 8.09168 3.70181 4.14606 -0 0 0 -0 0 0 -2.24584e-013 -3.83162e-013 1.77683e-012 72.6348 23.7429 1.20858 -13.4804 -6.54288 24.5144 -0.335795 16.2681 2.35043 -8.3158e-009 -8.66298e-009 4.38659e-009 -1.43039e-008 -1.51404e-008 7.70021e-009 -8.31579e-009 -8.66298e-009 4.38658e-009 7.73091 5.47488 0.417314 -8.3158e-009 -8.66298e-009 4.38659e-009 2.90554 0.965183 0.102902 -8.31579e-009 -8.66298e-009 4.38659e-009 10.2786 0.731801 0.0259123 -8.3158e-009 -8.66298e-009 4.3866e-009 2.22167 -0.733487 -0.20892 -2.24681e-013 -3.83153e-013 1.77661e-012 -76.0656 14.5793 -2.82309 12.3929 -5.72892 -22.3713 0.020732 -4.21142 0.592868 -5.37909e-009 -7.20158e-009 4.25794e-009 -9.32945e-009 -1.24709e-008 7.36866e-009 -5.37909e-009 -7.20158e-009 4.25795e-009 -7.73091 5.47488 -0.417314 -5.37909e-009 -7.20158e-009 4.25794e-009 -2.90554 0.965183 -0.102902 -5.3791e-009 -7.20158e-009 4.25794e-009 -10.2786 0.731801 -0.0259123 -5.37908e-009 -7.20158e-009 4.25794e-009 -2.22167 -0.733487 0.20892 -2.03217e-016 0 -3.88251e-019 1.85637 -17.1517 26.3929 -0.113678 26.4647 0.467012 -2.41542 -12.5993 -7.08012 2.03217e-016 0 3.88251e-019 -3.12166 -15.6865 -11.8524 0.0772917 18.0343 -0.231586 -0.886524 -7.23535 -6.64357 
-8.02568 143.443 -46.6562 0.380562 -3.37477 -144.288 -3.0597 10.9741 6.71794 -1.11486 -3.9088 1.72886 -5.29432 6.48656 2.7382 8.1288 3.76218 4.02245 -0 0 0 -0 0 0 -2.64636e-013 -4.17641e-013 2.02682e-012 72.4005 24.1485 1.40146 -13.4062 -6.48528 24.3668 -0.325064 16.0129 2.31154 -8.93842e-009 -9.79227e-009 4.93035e-009 -1.53716e-008 -1.71e-008 8.64672e-009 -8.93842e-009 -9.79226e-009 4.93035e-009 7.73091 5.47488 0.417314 -8.93842e-009 -9.79227e-009 4.93035e-009 2.90554 0.965183 0.102902 -8.93841e-009 -9.79227e-009 4.93035e-009 10.2786 0.731801 0.0259123 -8.93842e-009 -9.79227e-009 4.93036e-009 2.22167 -0.733487 -0.20892 -2.64755e-013 -4.17628e-013 2.02662e-012 -76.0707 15.1353 -2.52624 12.5575 -5.84816 -22.6927 0.0276893 -4.80752 0.677197 -5.6726e-009 -7.52654e-009 5.15988e-009 -9.84368e-009 -1.30338e-008 8.92776e-009 -5.6726e-009 -7.52653e-009 5.15989e-009 -7.73091 5.47488 -0.417314 -5.6726e-009 -7.52654e-009 5.15988e-009 -2.90554 0.965183 -0.102902 -5.67261e-009 -7.52654e-009 5.15989e-009 -10.2786 0.731801 -0.0259123 -5.67259e-009 -7.52654e-009 5.15989e-009 -2.22167 -0.733487 0.20892 -2.03217e-016 0 -3.88251e-019 1.83399 -17.1443 26.0572 -0.114588 26.5379 0.470488 -2.50331 -12.5721 -7.39458 2.03217e-016 0 3.88251e-019 -3.12139 -15.7603 -12.0504 0.076353 17.9351 -0.228937 -0.929749 -6.93579 -7.05324 
-7.8884 143.449 -46.7201 0.362228 -3.41934 -143.613 -2.91976 11.0365 6.70099 -1.12437 -3.95648 1.72752 -5.20069 6.50285 2.69807 8.1083 3.75542 3.93922 -0 0 0 -0 0 0 -2.67956e-013 -3.78496e-013 1.98472e-012 72.1325 24.4054 1.61502 -13.3388 -6.4332 24.2332 -0.319812 15.8845 2.29204 -8.48037e-009 -9.56574e-009 4.77785e-009 -1.45827e-008 -1.6697e-008 8.37544e-009 -8.48036e-009 -9.56574e-009 4.77786e-009 7.73091 5.47488 0.417314 -8.48037e-009 -9.56574e-009 4.77786e-009 2.90554 0.965183 0.102902 -8.48036e-009 -9.56574e-009 4.77786e-009 10.2786 0.731801 0.0259123 -8.48037e-009 -9.56574e-009 4.77787e-009 2.22167 -0.733487 -0.20892 -2.68085e-013 -3.78477e-013 1.98452e-012 -76.1293 15.5454 -2.31673 12.6788 -5.93628 -22.9317 0.0330242 -5.18015 0.730033 -5.29168e-009 -7.05061e-009 5.28033e-009 -9.18607e-009 -1.22098e-008 9.13513e-009 -5.29168e-009 -7.0506e-009 5.28034e-009 -7.73091 5.47488 -0.417314 -5.29168e-009 -7.05061e-009 5.28033e-009 -2.90554 0.965183 -0.102902 -5.29169e-009 -7.05061e-009 5.28034e-009 -10.2786 0.731801 -0.0259123 -5.29167e-009 -7.05061e-009 5.28034e-009 -2.22167 -0.733487 0.20892 -2.03217e-016 0 -3.88251e-019 1.82156 -17.136 25.7394 -0.115545 26.6201 0.474291 -2.60299 -12.5344 -7.75182 2.03217e-016 0 3.88251e-019 -3.1268 -15.8458 -12.2302 0.0755158 17.8486 -0.226635 -0.969046 -6.60816 -7.48454 
-7.7406 143.453 -46.7903 0.340457 -3.47248 -142.915 -2.79777 11.0484 6.69264 -1.04998 -3.8853 1.73153 -5.11255 6.54806 2.67291 8.00095 3.62338 3.91017 -0 0 0 -0 0 0 -2.16054e-013 -2.18258e-013 1.48668e-012 71.7993 24.4715 1.86855 -13.277 -6.38558 24.1106 -0.321973 15.9364 2.29994 -6.38479e-009 -7.26016e-009 3.49118e-009 -1.09816e-008 -1.26714e-008 6.1222e-009 -6.38479e-009 -7.26016e-009 3.49119e-009 7.73091 5.47488 0.417314 -6.38479e-009 -7.26016e-009 3.49119e-009 2.90554 0.965183 0.102902 -6.38478e-009 -7.26016e-009 3.49119e-009 10.2786 0.731801 0.0259123 -6.38479e-009 -7.26016e-009 3.4912e-009 2.22167 -0.733487 -0.20892 -2.16173e-013 -2.18236e-013 1.48647e-012 -76.2698 15.7571 -2.2469 12.7426 -5.98261 -23.0579 0.0342483 -5.24449 0.739183 -3.83967e-009 -5.28622e-009 4.29456e-009 -6.66783e-009 -9.1547e-009 7.42915e-009 -3.83967e-009 -5.28622e-009 4.29457e-009 -7.73091 5.47488 -0.417314 -3.83967e-009 -5.28623e-009 4.29456e-009 -2.90554 0.965183 -0.102902 -3.83968e-009 -5.28622e-009 4.29456e-009 -10.2786 0.731801 -0.0259123 -3.83966e-009 -5.28622e-009 4.29456e-009 -2.22167 -0.733487 0.20892 -2.03217e-016 0 -3.88251e-019 1.8084 -17.1285 25.4348 -0.116609 26.7152 0.47838 -2.71155 -12.4747 -8.14684 2.03217e-016 0 3.88251e-019 -3.15153 -15.9427 -12.3983 0.0746994 17.776 -0.224676 -1.00169 -6.24752 -7.93196 
